<svg xmlns="http://www.w3.org/2000/svg" width="30" height="37" viewBox="0 0 30 37" fill="none">
  <path d="M3.90784 7.03256C4.0897 6.69411 4.18063 6.52489 4.26937 6.42994C4.66463 6.00696 5.33537 6.00696 5.73063 6.42994C5.81937 6.52489 5.9103 6.69412 6.09216 7.03256L7.04104 8.79849C7.76112 10.1386 8.31914 11.5596 8.70331 13.0316L8.73735 13.1621C9.37608 15.6094 7.52932 18 5 18V18C2.47068 18 0.623921 15.6094 1.26265 13.1621L1.29669 13.0316C1.68086 11.5596 2.23888 10.1386 2.95896 8.79849L3.90784 7.03256Z" stroke="white" stroke-width="2"/>
  <path d="M11.0707 21.6757C11.5449 20.788 11.782 20.3441 12.1014 20.2053C12.3556 20.0948 12.6444 20.0948 12.8986 20.2053C13.218 20.3441 13.4551 20.788 13.9293 21.6757L15.1548 23.97C16.09 25.7207 16.8144 27.576 17.3128 29.4972L17.3676 29.7083C18.1938 32.8929 15.79 36 12.5 36V36C9.20999 36 6.80615 32.8929 7.6324 29.7083L7.68717 29.4972C8.18563 27.576 8.91003 25.7207 9.8452 23.97L11.0707 21.6757Z" stroke="white" stroke-width="2"/>
  <path d="M20.7211 3.5653C21.4919 2.02043 21.8773 1.248 22.4868 1.23992C22.4956 1.23981 22.5044 1.23981 22.5132 1.23992C23.1227 1.248 23.5081 2.02043 24.2789 3.5653L25.5854 6.18379C25.7243 6.46209 25.7937 6.60125 25.8614 6.74074C26.7222 8.51314 27.4001 10.3686 27.8847 12.2785C27.9228 12.4288 27.9594 12.58 28.0327 12.8822L28.2335 13.711C29.1334 17.424 26.3205 21 22.5 21V21C18.6795 21 15.8666 17.424 16.7665 13.711L16.9673 12.8822C17.0406 12.58 17.0772 12.4288 17.1153 12.2785C17.5999 10.3686 18.2778 8.51314 19.1386 6.74074C19.2063 6.60125 19.2757 6.46209 19.4146 6.18379L20.7211 3.5653Z" stroke="white" stroke-width="2"/>
</svg>