<svg xmlns="http://www.w3.org/2000/svg" width="34" height="34" viewBox="0 0 34 34" fill="none">
  <path d="M31.1667 11.3333L31.8738 10.6262L32.5809 11.3333L31.8738 12.0404L31.1667 11.3333ZM4.24999 12.3333C3.69771 12.3333 3.24999 11.8856 3.24999 11.3333C3.24999 10.781 3.69771 10.3333 4.24999 10.3333V12.3333ZM26.2071 4.95956L31.8738 10.6262L30.4595 12.0404L24.7929 6.37377L26.2071 4.95956ZM31.8738 12.0404L26.2071 17.7071L24.7929 16.2929L30.4595 10.6262L31.8738 12.0404ZM31.1667 12.3333H4.24999V10.3333H31.1667V12.3333Z" fill="white"/>
  <path d="M15.5833 22.6667L16.2905 21.9596L16.9976 22.6667L16.2905 23.3738L15.5833 22.6667ZM2.83334 23.6667C2.28106 23.6667 1.83334 23.219 1.83334 22.6667C1.83334 22.1144 2.28106 21.6667 2.83334 21.6667L2.83334 23.6667ZM10.6238 16.2929L16.2905 21.9596L14.8762 23.3738L9.20957 17.7071L10.6238 16.2929ZM16.2905 23.3738L10.6238 29.0404L9.20957 27.6262L14.8762 21.9596L16.2905 23.3738ZM15.5833 23.6667L2.83334 23.6667L2.83334 21.6667L15.5833 21.6667L15.5833 23.6667Z" fill="white"/>
</svg>